<?xml version="1.0" encoding="UTF-8"?>
<svg id="a" data-name="Layer 1" xmlns="http://www.w3.org/2000/svg" width="567.194" height="150.267" viewBox="0 0 567.194 150.267">
  <g>
    <path d="M0,0h33.796c18.352,0,23.258,5.814,23.258,25.802v10.72c0,14.354-2.544,21.077-10.72,23.803,8.176,2.726,10.72,9.448,10.72,23.803v17.261c0,19.987-4.906,25.802-23.258,25.802H0V0ZM36.522,28.527c0-7.086-.545-9.267-6.542-9.267h-9.448v31.434h9.448c5.814,0,6.542-2.362,6.542-9.267v-12.901ZM20.532,69.955v37.976h9.448c5.997,0,6.542-2.181,6.542-9.267v-19.442c0-6.905-.727-9.267-6.542-9.267h-9.448Z" fill="#fff" stroke-width="0"/>
    <path d="M119.193,127.191h-17.625c-.909-1.817-1.454-5.633-1.817-11.084-1.635,7.45-5.814,11.992-15.081,11.992h-3.816c-11.083,0-14.354-4.906-14.354-17.989V26.892h18.534v76.133c0,5.996.727,8.177,5.633,8.177h1.999c4.906,0,6.542-3.452,6.542-9.812V26.892h18.534v83.401c0,5.814,0,10.902,1.454,16.898Z" fill="#fff" stroke-width="0"/>
    <path d="M128.64,127.191V0h18.533v127.191h-18.533Z" fill="#fff" stroke-width="0"/>
    <path d="M176.605,127.191h-18.533V0h18.533v70.5c1.454-4.724,3.089-8.722,4.725-12.719l12.355-30.889h17.625l-20.169,47.242,21.259,53.057h-19.26l-12.719-33.796c-1.635-4.543-2.907-7.632-3.816-11.811v45.607Z" fill="#fff" stroke-width="0"/>
    <path d="M218.758,0h33.796c18.352,0,23.258,5.814,23.258,25.802v10.72c0,14.354-2.544,21.077-10.72,23.803,8.176,2.726,10.72,9.448,10.72,23.803v17.261c0,19.987-4.906,25.802-23.258,25.802h-33.796V0ZM255.28,28.527c0-7.086-.545-9.267-6.541-9.267h-9.449v31.434h9.449c5.814,0,6.541-2.362,6.541-9.267v-12.901ZM239.291,69.955v37.976h9.449c5.996,0,6.541-2.181,6.541-9.267v-19.442c0-6.905-.727-9.267-6.541-9.267h-9.449Z" fill="#fff" stroke-width="0"/>
    <path d="M337.951,127.191h-17.625c-.909-1.817-1.454-5.633-1.817-11.084-1.635,7.45-5.814,11.992-15.081,11.992h-3.816c-11.083,0-14.354-4.906-14.354-17.989V26.892h18.533v76.133c0,5.996.727,8.177,5.633,8.177h1.999c4.906,0,6.541-3.452,6.541-9.812V26.892h18.534v83.401c0,5.814,0,10.902,1.454,16.898Z" fill="#fff" stroke-width="0"/>
    <path d="M399.364,127.191h-17.625c-.908-1.817-1.454-5.633-1.817-11.084-1.635,7.45-5.814,11.992-15.081,11.992h-3.816c-11.083,0-14.354-4.906-14.354-17.989V43.972c0-13.083,3.271-17.989,14.354-17.989h3.816c8.176,0,12.537,3.634,14.536,9.812V0h18.352v110.293c0,5.814.182,10.902,1.636,16.898ZM379.377,52.694c0-6.36-1.817-9.812-6.542-9.812h-1.999c-5.088,0-5.633,2.18-5.633,8.177v51.967c0,5.996.545,8.177,5.633,8.177h1.999c4.724,0,6.542-3.452,6.542-9.812v-48.696Z" fill="#fff" stroke-width="0"/>
    <path d="M460.595,127.191h-17.625c-.908-1.817-1.454-5.633-1.817-11.084-1.635,7.45-5.814,11.992-15.081,11.992h-3.816c-11.083,0-14.354-4.906-14.354-17.989V43.972c0-13.083,3.271-17.989,14.354-17.989h3.816c8.176,0,12.537,3.634,14.536,9.812V0h18.352v110.293c0,5.814.182,10.902,1.636,16.898ZM440.607,52.694c0-6.36-1.817-9.812-6.542-9.812h-1.999c-5.088,0-5.633,2.18-5.633,8.177v51.967c0,5.996.545,8.177,5.633,8.177h1.999c4.724,0,6.542-3.452,6.542-9.812v-48.696Z" fill="#fff" stroke-width="0"/>
    <path d="M484.213,150.267h-16.354v-13.991h8.177c3.452,0,5.088-1.454,5.088-4.724v-4.906l-15.99-99.754h18.897l4.724,31.798c2.362,14.899,4.361,35.068,5.087,47.969.727-12.901,2.544-33.07,4.906-47.969l4.906-31.798h16.716l-17.261,107.567c-1.454,9.994-7.086,15.808-18.897,15.808Z" fill="#fff" stroke-width="0"/>
  </g>
  <path d="M531.818,4.144v18.084h-4.628V4.144h-6.82V.003h18.267v4.141h-6.82ZM562.81,22.228v-14.187l-6.15,14.187h-3.593l-5.967-14.005v14.005h-4.627V.003h6.028l6.515,15.466L561.532.003h5.663v22.225h-4.384Z" fill="#fff" stroke-width="0"/>
</svg>